<svg xmlns="http://www.w3.org/2000/svg" viewBox="0 0 32 32" width="512" height="512">
  <path d="M20 13c0 5-3.5 7.5-7.66 8.95a1 1 0 0 1-.67-.01C7.5 20.5 4 18 4 13V6a1 1 0 0 1 1-1c2 0 4.5-1.2 6.24-2.72a1.17 1.17 0 0 1 1.52 0C14.51 3.81 17 5 19 5a1 1 0 0 1 1 1z" fill="#e2925e" transform="translate(16,16) scale(1.18) translate(-12,-12.1)"/>
  <g transform="translate(16,15.1) scale(0.55) translate(-12,-12)" stroke="#17181b" stroke-width="3.2" stroke-linecap="round" stroke-linejoin="round" fill="none">
    <path d="M9 17H7A5 5 0 0 1 7 7h2"/>
    <path d="M15 7h2a5 5 0 1 1 0 10h-2"/>
    <path d="M8 12h8"/>
  </g>
</svg>
